<svg xmlns="http://www.w3.org/2000/svg" width="65" height="71" fill="none" xmlns:v="https://vecta.io/nano"><path d="M64.048 40.671c0-9.009-4.055-17.07-10.44-22.459-5.113-4.316-19.479-4.81-19.479-4.81l-10.412.06c-.077.033-.171.01-.248.043C13.264 17.933 6.642 28.426 6.642 40.623c0 16.224 12.096 27.264 28.321 27.264 4.878 0 9.186.972 13.235-1.132 9.418-4.894 15.85-14.738 15.85-26.084z" fill="#94ccd4"/><path d="M53.609 18.212c-2.987 1.954-6.194 3.892-7.396 4.155-3.3.965-7.594-1.079-8.477 3.787a19.06 19.06 0 0 1-.249 2.665c-.157.929-.503 1.804-1.004 2.581s-1.836 1.004-2.613 1.537c-2.139 1.47-3.877 1.558-6.18.358l-.178-.094c-3.837-1.88-6.09-6.204-2.113-9.364 2.614-2.158 2.219-5.965.392-8.344l-1.099-1.272c.854-.353.506-1.381 1.398-1.653 2.715-.828 5.597-1.274 8.582-1.274 7.216 0 13.824 2.601 18.938 6.918zM57.455 33.4c-.016-2.425-.995-4.746-2.722-6.449-1.473-1.686-1.983-2.69-4.008-.829-1.919 2.387-.026 5.35-4.106 9.422-.722.735-1.128 1.742-1.087 2.774-.002 0-.001-.182-.002-.183.147 2.556 1.893 4.617 4.381 4.617 3.197 0 7.544-3.753 7.544-9.352z" fill="#b7e546"/><path d="M48.257 35.353c-.722.736-1.129 1.743-1.088 2.775.119 2.114 1.954 3.895 3.994 4.446a4.77 4.77 0 0 1-1.253.177c-2.488 0-5.135-2.068-5.283-4.625-.038-1.03.368-2.036 1.091-2.773 4.079-4.07 1.715-7.25 3.635-9.637 1.157-1.064 2.267-1.059 3.281-.545a3.88 3.88 0 0 0-.742.545c-1.919 2.387.444 5.567-3.635 9.637z" fill="#abd641"/><path d="M60.215 9.174v14.664l-.934.887c0 1.227-1.395 1.412-2.622 1.412l-6.707-.05a1.48 1.48 0 0 0-.869.282l-5.534 3.843a.74.74 0 0 1-1.175-.6l.52-1.848a1.48 1.48 0 0 0-1.481-1.481h-1.777a2.22 2.22 0 0 1-2.222-2.222l-.268-13.756c0-1.227.487-2.521 1.714-2.521l.619-.83h18.515a2.22 2.22 0 0 1 2.222 2.222z" fill="#dc4955"/><path d="M60.214 23.838v.741a2.22 2.22 0 0 1-2.222 2.222h-7.951a1.48 1.48 0 0 0-.868.281l-6.003 4.347a.74.74 0 0 1-1.174-.6v-2.548a1.48 1.48 0 0 0-1.481-1.481h-1.778a2.22 2.22 0 0 1-2.222-2.222V9.174a2.22 2.22 0 0 1 2.222-2.222h.741v16.589c0 .164.133.296.296.296h.741c1.705 0 3.188.964 3.933 2.377.127.241.435.317.655.157l2.332-1.69a4.42 4.42 0 0 1 2.607-.844h10.173z" fill="#d82f3c"/><path d="M41.653 67.481c-16.613 0-30.082-13.429-30.082-29.994 0-9.866 4.523-18.516 11.898-23.982C12.802 17.908 5.294 28.413 5.294 40.671c0 4.995 1.247 9.699 3.446 13.818l10.511 8.127c4.87 3.584 14.332 5.895 14.332 5.895s10.529.357 14.566-1.732c-2.092.46-4.265.702-6.495.702z" fill="#6fbbc6"/><path d="M48.196 66.752c-2.361-3.288-6.702-6.913-6.516-11.278.064-1.488-.133-2.982-.623-4.389a.96.96 0 0 1-.02-.056c-.248-.697-.62-1.342-1.084-1.917-1.279-1.589-4.01-5.736-5.344-6.318-2.549-1.577-6-.403-7.364 2.186-1.184 2.994-1.51 7.097-4.602 8.712-1.848 1.002-4.513.777-5.919-.883-2.44-3.169-5.855-.105-7.981 1.678.845 1.578 4.291 2.735 5.406 4.135 4.625 5.81 8.741 8.049 15.518 9.265 6.304 1.144 12.772 1.855 18.46-1.1l.069-.035z" fill="#b7e546"/><path d="M48.137 66.781c-5.05 2.627-10.882 3.699-16.539 3.105v-.001c-9.562-.935-18.386-6.9-22.854-15.398 1.681-1.41 4.17-3.623 6.345-2.916 5.059 9.467 15.058 15.91 26.565 15.91 2.227 0 4.395-.241 6.483-.7z" fill="#abd641"/><path d="M54.688 41.347v14.664l-.934.887c0 1.227-1.395 1.412-2.622 1.412l-6.707-.05a1.48 1.48 0 0 0-.869.282l-5.535 3.843a.74.74 0 0 1-1.175-.6l.52-1.848a1.48 1.48 0 0 0-1.481-1.481h-1.777a2.22 2.22 0 0 1-2.222-2.222l-.268-13.756c0-1.227.487-2.521 1.714-2.521l.619-.83h18.515a2.22 2.22 0 0 1 2.222 2.222z" fill="#ffbf54"/><path d="M54.688 56.011v.741a2.22 2.22 0 0 1-2.222 2.222h-7.951a1.48 1.48 0 0 0-.868.281l-6.003 4.347a.74.74 0 0 1-1.175-.6v-2.548a1.48 1.48 0 0 0-1.481-1.481h-1.777a2.22 2.22 0 0 1-2.222-2.222V41.347a2.22 2.22 0 0 1 2.222-2.222h.741v16.59c0 .164.133.296.296.296h.741c1.705 0 3.188.964 3.933 2.377.127.241.435.317.655.157l2.332-1.69a4.42 4.42 0 0 1 2.607-.844h10.173z" fill="#ffa442"/><g fill="#abd641"><path d="M26.363 25.477l-.037.03c-.49.39-2.191 1.947-3.397 3.283-.485-1.832-.064-3.777 1.818-5.271 2.614-2.158 1.649-6.363-.178-8.742l-1.1-1.273 2.62-.937 1.492 2.21c1.893 3.526 1.978 8.063-1.218 10.7z"/><path d="M36.589 31.227l-.107.173c-.502.777-1.157 1.455-1.934 1.988-2.139 1.47-4.913 1.635-7.216.435l-.178-.094c-3.611-1.77-6.08-6.45-3.044-9.629-.966 2.917 1.315 6.286 4.386 7.725l.185.094c2.407 1.2 5.307 1.035 7.542-.436.124-.081.246-.166.364-.256z"/></g><path d="M31.277 69.85l.026.003-.026-.003zm-9.107-2.591l.087.04-.087-.04zm25.978-.48l-1.598.766 1.577-.758.021-.008z" fill="#94ccd4"/><path d="M1.974 24.345l.186 12.776c0 1.251 1.019 2.265 2.277 2.265l7.148.234c.32 0 .631.101.89.287l4.878 4.124a.76.76 0 0 0 1.204-.611l.308-1.994c0-.834.68-1.51 1.518-1.51l2.359-.009c1.258 0 2.496-.299 2.496-1.55V22.651c0-1.251-1.019-2.265-2.277-2.265H3.229c-1.258 0-1.255 2.708-1.255 3.959z" fill="#faf8f8"/><path d="M25.241 38.084v.274c0 1.251-1.019 2.265-2.277 2.265h-1.822c-.838 0-1.517.677-1.517 1.511v2.599a.76.76 0 0 1-1.205.611l-6.151-4.433c-.259-.187-.571-.287-.891-.287H3.23c-1.258 0-2.278-1.014-2.278-2.265V22.651c0-1.252 1.019-2.266 2.278-2.266h.262v17.064c0 .351.284.635.635.635h7.252c.853 0 1.685.269 2.375.767l2.837 2.045a.51.51 0 0 0 .772-.235c.592-1.507 2.063-2.577 3.779-2.577h4.099z" fill="#f0e9e6"/><path d="M61.177 25.921a3.19 3.19 0 0 0 .159-.996V9.218C61.336 7.443 59.888 6 58.107 6H38.373c-1.781 0-3.229 1.443-3.229 3.217v1.13a30.33 30.33 0 0 0-12.594 2.514 30.21 30.21 0 0 0-9.527 6.572H9.648a.952.952 0 1 0 0 1.904h13.315a1.32 1.32 0 0 1 1.325 1.313v15.707a1.32 1.32 0 0 1-1.325 1.313h-1.822a2.47 2.47 0 0 0-2.47 2.462v2.218l-5.847-4.213a2.46 2.46 0 0 0-1.447-.467H3.229a1.32 1.32 0 0 1-1.325-1.313V22.651a1.32 1.32 0 0 1 1.325-1.313h1.976a.952.952 0 1 0 0-1.904H3.229C1.449 19.433 0 20.877 0 22.651v15.707a3.23 3.23 0 0 0 3.229 3.218h1.127c.226 7.762 3.354 15.027 8.869 20.542A30.13 30.13 0 0 0 34.671 71a30.12 30.12 0 0 0 12.119-2.518 30.21 30.21 0 0 0 9.796-6.845.952.952 0 1 0-1.376-1.317c-2.092 2.186-4.466 3.991-7.041 5.385-1.21-1.611-2.986-3.548-4.173-5.406l.227-.164a.57.57 0 0 1 .334-.107h8.149c1.781 0 3.229-1.443 3.229-3.218V41.105a3.2 3.2 0 0 0-.061-.621c1.636-1.959 2.533-4.456 2.533-7.091a10.08 10.08 0 0 0-1.514-5.251h1.215a3.22 3.22 0 0 0 1.806-.551c2.085 4.021 3.183 8.516 3.183 13.08a28.24 28.24 0 0 1-5.142 16.31.95.95 0 0 0 .232 1.326c.284.204.895.286 1.326-.232A30.14 30.14 0 0 0 65 40.671a30.33 30.33 0 0 0-3.823-14.75zm-38.214-6.487h-7.187a28.23 28.23 0 0 1 7.417-4.788l.637.734c1.069 1.403 1.735 3.417 1.517 5.103a3.23 3.23 0 0 0-2.384-1.049zm22.176 45.527l1.295 1.609c-3.64 1.655-7.626 2.526-11.763 2.526-10.654 0-19.956-5.893-24.822-14.589 1.342-1.107 3.072-2.453 4.453-2.292.564.066 1.063.395 1.526 1.008 1.159 1.532 3.114 1.83 4.483 1.921a6.48 6.48 0 0 0 5.006-2.855.952.952 0 1 0-1.57-1.077c-.818 1.193-1.899 1.838-3.396 2.027-1.554-.114-2.483-.474-3.004-1.164-.782-1.035-1.733-1.624-2.825-1.751-2.017-.234-4 1.183-5.565 2.453-1.615-3.418-2.569-7.206-2.694-11.201h5.116a.57.57 0 0 1 .334.107l6.151 4.433a1.71 1.71 0 0 0 1.001.325c.267 0 .534-.063.782-.189a1.7 1.7 0 0 0 .93-1.519v-2.598c0-.308.254-.558.566-.558h1.822c1.781 0 3.229-1.444 3.229-3.218v-4.063c1.133.699 2.928 1.319 4.39 1.28a7.95 7.95 0 0 0 4.506-1.401c1.766-1.213 2.983-3.107 3.337-5.195a17.89 17.89 0 0 0 .121-.836h1.648c.312 0 .566.25.566.558V31.3a1.7 1.7 0 0 0 .93 1.519c.484.227 1.074.303 1.783-.135l3.919-2.825c-.151 1.474-.548 3.026-2.354 4.828-.848.863-1.335 2.017-1.361 3.201H32.971a3.23 3.23 0 0 0-3.229 3.218v.412c-1.768.674-3.183 2.161-3.817 4.035-.138.408-.355 1.104-.556 1.769a.95.95 0 0 0 .632 1.189c.383.108.926-.025 1.189-.632l.539-1.715c.367-1.083 1.092-1.982 2.014-2.536v13.186a3.23 3.23 0 0 0 3.229 3.218h1.822c.312 0 .566.25.566.558v2.598a1.7 1.7 0 0 0 .93 1.519c.248.127.516.19.782.19a1.71 1.71 0 0 0 1.001-.325l4.378-3.155c.803 1.246 1.758 2.413 2.689 3.547zm8.892-8.149a1.32 1.32 0 0 1-1.325 1.313h-8.149a2.46 2.46 0 0 0-1.447.467l-5.847 4.213v-2.218a2.47 2.47 0 0 0-2.47-2.462h-1.822a1.32 1.32 0 0 1-1.325-1.313V41.105a1.32 1.32 0 0 1 1.325-1.313h11.76 7.974a1.32 1.32 0 0 1 1.325 1.313v15.707zM56.503 33.4c0 1.934-.584 3.778-1.657 5.298a3.22 3.22 0 0 0-2.139-.81h-7.123a2.82 2.82 0 0 1 .808-1.86c2.682-2.676 2.845-5.048 2.975-6.953l.052-.676.206-.149a.57.57 0 0 1 .334-.108h4.582a8.17 8.17 0 0 1 1.962 5.257zm1.605-7.162h-8.149a2.46 2.46 0 0 0-1.447.467l-.569.41-5.278 3.804V28.7a2.47 2.47 0 0 0-2.47-2.462h-1.822a1.32 1.32 0 0 1-1.325-1.313v-3.563a.952.952 0 1 0-1.904 0v3.563c0 1.157.616 2.173 1.539 2.74a16.16 16.16 0 0 1-.135.995 6.05 6.05 0 0 1-2.538 3.944c-2.371 1.669-5.566 1.248-7.817-.616v-8.609c2.043-2.694 1.021-6.98-1.126-9.48 3.065-1.1 6.626-1.719 10.077-1.647v4.666a.952.952 0 1 0 1.904 0v-7.7a1.32 1.32 0 0 1 1.325-1.313h19.734a1.32 1.32 0 0 1 1.325 1.313v15.707a1.32 1.32 0 0 1-1.325 1.313zm-3.987-13.922h-4.929v-1.619a.952.952 0 1 0-1.904 0v1.619h-4.929a.952.952 0 1 0 0 1.904h1.974a13.6 13.6 0 0 0 2.621 5.475 11.8 11.8 0 0 1-3.348 2.243l-1.312.585a.95.95 0 0 0-.482 1.257c.158.354.506.565.87.565a.95.95 0 0 0 .387-.083l1.312-.585a13.71 13.71 0 0 0 3.859-2.576c1.113 1.056 2.412 1.931 3.859 2.576l1.312.585c.335.139.962.1 1.257-.482a.95.95 0 0 0-.482-1.257l-1.312-.585c-1.257-.56-2.385-1.323-3.348-2.243 1.259-1.585 2.164-3.448 2.621-5.475h1.974a.952.952 0 1 0 0-1.904zm-5.881 5.928a11.7 11.7 0 0 1-1.947-4.024h3.894c-.389 1.47-1.055 2.832-1.947 4.024zM8.25 37.105a.95.95 0 0 0 1.227-.555l.826-2.19h5.579l.835 2.192a.95.95 0 0 0 1.78-.678l-4.29-11.265-.008-.022c-.187-.457-.626-.752-1.12-.753s-.934.294-1.121.75l-.01.026-4.251 11.265a.95.95 0 0 0 .555 1.227zm4.83-10.102l2.077 5.453h-4.135l2.058-5.453zm37.052 16.194h-4.43a.952.952 0 1 0 0 1.904h1.263v2.983h-3.787a3.38 3.38 0 0 0 .346-1.492 3.4 3.4 0 0 0-3.396-3.396h-2.749a.952.952 0 1 0 0 1.904h2.749c.823 0 1.492.669 1.492 1.492s-.669 1.492-1.492 1.492h-3.055a.952.952 0 1 0 0 1.904h3.055c.823 0 1.492.669 1.492 1.492 0 .837-.655 1.492-1.492 1.492-1.315 0-2.809-.148-3.909-1.248a.952.952 0 1 0-1.346 1.346c1.601 1.601 3.65 1.806 5.255 1.806a3.4 3.4 0 0 0 3.396-3.396 3.38 3.38 0 0 0-.346-1.492h3.787v3.935a.952.952 0 1 0 1.904 0V45.1h1.262a.952.952 0 1 0 0-1.904z" fill="#4f4f4f"/></svg>