<svg xmlns="http://www.w3.org/2000/svg" xmlns:xlink="http://www.w3.org/1999/xlink" width="66" height="69" fill="none" xmlns:v="https://vecta.io/nano"><path d="M51.018 67.2H4.439c-1.413 0-2.559-1.097-2.559-2.451V9.351C1.88 7.997 3.026 6.9 4.439 6.9h46.579c1.413 0 2.559 1.097 2.559 2.451v55.398c0 1.354-1.146 2.451-2.559 2.451z" fill="#fff"/><ellipse cx="27.259" cy="24" rx="10.339" ry="9.9" fill="#fe6663"/><path d="M31.018 22.7v.8c0 1.767-1.473 3.2-3.29 3.2s-3.29-1.433-3.29-3.2v-.8c0-1.767 1.473-3.2 3.29-3.2s3.29 1.433 3.29 3.2z" fill="#ffcdac"/><path d="M26.789 26.7c-3.205 0-5.942 1.892-7.05 4.564 1.848 1.635 4.325 2.636 7.05 2.636s5.201-1.001 7.05-2.636c-1.107-2.672-3.845-4.564-7.05-4.564z" fill="#a5ddff"/><path d="M56.239 25.355l.753-1.206c1.164-1.864 3.741-2.503 5.757-1.427s2.706 3.46 1.543 5.325L47.718 54.6l-7.3-3.898 7.149-11.453 8.672-13.893z" fill="#ffbc53"/><path d="M61.697 22.724c-2.122-1.079-4.835-.439-6.061 1.43l-2.06 3.141 7.685 3.906 2.06-3.141c1.225-1.868.498-4.257-1.624-5.335z" fill="#fe6663"/><path d="M47.937 55.356L39.478 61.8 40.643 51l7.294 4.356z" fill="#9ad8ff"/><g fill="#333"><path d="M53.231 55.013c-.71 0-1.286.551-1.286 1.23v9.065c0 .678-.577 1.231-1.286 1.231H3.857c-.709 0-1.286-.552-1.286-1.231V9.691c0-.678.577-1.23 1.286-1.23H50.66c.709 0 1.286.552 1.286 1.23v13.381c0 .68.576 1.23 1.286 1.23s1.286-.551 1.286-1.23V9.691C54.517 7.656 52.787 6 50.66 6H3.857C1.73 6 0 7.656 0 9.691v55.617C0 67.344 1.73 69 3.857 69H50.66c2.127 0 3.857-1.656 3.857-3.691v-9.065c0-.68-.576-1.23-1.286-1.23z"/><path fill-rule="evenodd" d="M26.789 13.2c6.479 0 11.749 5.047 11.749 11.25 0 3.218-1.419 6.125-3.689 8.177-.042.043-.088.085-.137.122-2.091 1.831-4.873 2.951-7.923 2.951s-5.833-1.119-7.924-2.951c-.049-.038-.095-.079-.137-.122-2.27-2.052-3.688-4.959-3.688-8.177 0-6.203 5.271-11.25 11.749-11.25zm9.195 11.25c0-4.855-4.125-8.804-9.195-8.804s-9.195 3.95-9.195 8.804c0 1.953.668 3.758 1.796 5.219.942-1.338 2.247-2.378 3.763-3.02a4.26 4.26 0 0 1-.961-2.689v-.795c0-2.427 2.062-4.402 4.598-4.402s4.598 1.975 4.598 4.402v.795a4.26 4.26 0 0 1-.961 2.689c1.516.642 2.821 1.683 3.763 3.02 1.128-1.462 1.796-3.267 1.796-5.219zm-11.238-.489v-.795c0-1.079.917-1.957 2.043-1.957s2.043.878 2.043 1.957v.795c0 1.079-.917 1.957-2.043 1.957s-2.043-.878-2.043-1.957zm2.043 4.402c-2.337 0-4.432 1.192-5.554 3.098 1.544 1.125 3.469 1.794 5.554 1.794s4.01-.669 5.554-1.794c-1.123-1.906-3.217-3.098-5.554-3.098z"/><path d="M34.448 59.1h-6.859c-.701 0-1.27.604-1.27 1.35s.569 1.35 1.27 1.35h6.859c.701 0 1.27-.604 1.27-1.35s-.569-1.35-1.27-1.35z"/><use xlink:href="#B"/><use xlink:href="#B" y="-6.3"/><path d="M11.806 38.796c-.262-.251-.626-.396-.998-.396a1.45 1.45 0 0 0-.996.396 1.33 1.33 0 0 0-.413.954 1.33 1.33 0 0 0 .413.955c.264.251.626.395.996.395a1.46 1.46 0 0 0 .998-.395c.264-.251.413-.599.413-.955a1.33 1.33 0 0 0-.413-.954zm0 8.1c-.263-.251-.626-.396-.998-.396s-.733.144-.996.396a1.33 1.33 0 0 0-.413.954 1.33 1.33 0 0 0 .413.954c.264.251.626.396.996.396s.734-.144.998-.396.413-.599.413-.954a1.33 1.33 0 0 0-.413-.954zm-.997 5.904c-.371 0-.733.145-.996.396a1.33 1.33 0 0 0-.413.954 1.33 1.33 0 0 0 .413.955 1.45 1.45 0 0 0 .996.395c.372 0 .736-.144.998-.395a1.33 1.33 0 0 0 .413-.955 1.33 1.33 0 0 0-.413-.954c-.263-.251-.626-.396-.998-.396z"/><use xlink:href="#B" y="-14.4"/><path fill-rule="evenodd" d="M58.844 21.476c1.425-.353 2.914-.172 4.192.51 2.638 1.407 3.545 4.534 2.022 6.971L48.507 55.44c-.091.145-.213.271-.359.371l-8.455 5.753c-.231.157-.505.237-.78.237a1.4 1.4 0 0 1-.657-.163c-.453-.241-.707-.707-.649-1.187l1.165-9.641c.02-.167.078-.328.168-.473L55.49 23.854c.738-1.18 1.929-2.025 3.354-2.378zm-13.875 33.48l-3.806-2.03-.608 5.034 4.415-3.004zm1.918-1.783L41.875 50.5l13.282-21.252 5.012 2.673-13.282 21.252zm14.597-23.357l1.296-2.074a2.48 2.48 0 0 0 .289-2.028c-.2-.69-.679-1.266-1.348-1.623a3.08 3.08 0 0 0-2.196-.267c-.746.185-1.37.627-1.757 1.245l-1.296 2.074 5.012 2.673z"/></g><defs ><path id="B" d="M33.502 52.8H15.376c-.705 0-1.277.604-1.277 1.35s.572 1.35 1.277 1.35h18.126c.705 0 1.276-.604 1.276-1.35s-.572-1.35-1.276-1.35z"/></defs></svg>