<svg xmlns="http://www.w3.org/2000/svg" width="65" height="68" fill="none" xmlns:v="https://vecta.io/nano"><path d="M48.397 44.211l8.674-8.401c3.24-3.171 9.471.83 6.104 4.706L52.672 52.61c-.411.473-.884.893-1.405 1.248-1.693 1.059-3.71 1.412-5.697 1.412H29.984a29.87 29.87 0 0 0-3.374.191l-4.483.493-9.298-8.831s5.275-9.749 15.622-6.947c1.935.524 3.938.774 5.946.774H44.64c4.822 0 4.861 7.5-.04 7.5h-8.918" fill="#ffcdac"/><path d="M15.956 65.781l8.845-8.484L9.792 43.672.855 52.338l15.101 13.443z" fill="#6bd5e1"/><path d="M11.826 18.284c-2.796.247-4.984 2.44-4.984 5.109v5.465c0 .944.821 1.709 1.835 1.709h12.581c1.014 0 1.835-.765 1.835-1.709v-5.465c0-2.671-2.191-4.866-4.99-5.11" fill="#ffb677"/><path d="M21.381 13.371c0 3.166-2.68 5.732-5.987 5.732s-5.987-2.566-5.987-5.732 2.68-5.733 5.987-5.733 5.987 2.567 5.987 5.733z" fill="#ffcdac"/><path d="M28.076 18.284c-2.796.247-4.984 2.44-4.984 5.109v5.465c0 .944.822 1.709 1.835 1.709h12.58c1.014 0 1.835-.765 1.835-1.709v-5.465c0-2.671-2.191-4.866-4.99-5.11" fill="#ff8364"/><path d="M36.776 13.371c0 3.166-2.68 5.732-5.987 5.732s-5.987-2.566-5.987-5.732 2.681-5.733 5.987-5.733 5.987 2.567 5.987 5.733z" fill="#ffcdac"/><path d="M43.471 18.284c-2.797.247-4.984 2.44-4.984 5.109v5.465c0 .944.822 1.709 1.835 1.709h12.58c1.013 0 1.835-.765 1.835-1.709v-5.465c0-2.671-2.191-4.866-4.991-5.11" fill="#ffd98e"/><path d="M53.026 13.371c0 3.166-2.681 5.732-5.987 5.732s-5.987-2.566-5.987-5.732 2.68-5.733 5.987-5.733 5.987 2.567 5.987 5.733z" fill="#ffcdac"/><path fill-rule="evenodd" d="M63.464 34.5a6 6 0 0 0-3.632-1.468c-1.516-.076-2.936.446-3.994 1.467l-7.227 6.902a4.63 4.63 0 0 0-.489-.673c-.889-1.019-2.19-1.58-3.661-1.58H34.344c-1.908 0-3.769-.239-5.531-.709-4.595-1.227-8.985-.331-12.696 2.593a18.08 18.08 0 0 0-3.306 3.425l-1.814-1.699c-.239-.224-.562-.35-.895-.35h-.008c-.345.002-.678.141-.917.38L.357 51.622a1.21 1.21 0 0 0-.357.883c.007.329.15.641.396.867l14.916 13.707a1.3 1.3 0 0 0 .882.341 1.3 1.3 0 0 0 .916-.373l8.737-8.65c.239-.236.371-.559.364-.89s-.148-.639-.39-.866l-.761-.712 1.741-.189c1.053-.118 2.124-.178 3.185-.178H45.38c2.501 0 4.626-.528 6.315-1.569.014-.009.028-.018.042-.027.605-.406 1.154-.887 1.631-1.429l10.374-11.778c1.775-2.015 1.664-4.53-.277-6.258zM16.161 64.45L3.091 52.44l7.04-7.054 12.993 12.168-6.964 6.896zm35.258-13.513l10.374-11.778c1.199-1.361.476-2.366-.062-2.845-1.04-.926-2.899-1.214-4.088-.066l-8.324 7.949c-.036 1.188-.46 2.299-1.205 3.144-.895 1.017-2.206 1.577-3.693 1.577h-8.807c-.706 0-1.279-.552-1.279-1.234s.572-1.234 1.279-1.234h8.807c.744 0 1.331-.237 1.744-.706.38-.433.599-1.057.599-1.712 0-.897-.485-2.416-2.302-2.416H34.344c-2.138 0-4.229-.269-6.213-.799-3.815-1.019-7.313-.303-10.397 2.126a15.59 15.59 0 0 0-3.064 3.253l8.014 7.505 3.828-.414a31.28 31.28 0 0 1 3.475-.194H45.38c1.994 0 3.648-.393 4.916-1.168.416-.281.794-.614 1.123-.987z" fill="#4f4f4f"/><path d="M31.598 47.875c-.161-.648-.848-1.049-1.534-.897s-1.112.799-.951 1.447l.012.049c.138.555.662.929 1.242.929.097 0 .195-.01.293-.032.687-.152 1.113-.8.952-1.447l-.012-.049z" fill="#000"/><path fill-rule="evenodd" d="M8.256 32.205h12.576a3.19 3.19 0 0 0 1.834-.575 3.19 3.19 0 0 0 1.834.575h12.577a3.19 3.19 0 0 0 1.834-.575 3.19 3.19 0 0 0 1.834.575h12.576c1.723 0 3.125-1.349 3.125-3.007v-5.644c0-2.535-1.474-4.737-3.681-5.823 1.069-1.241 1.713-2.833 1.713-4.567C54.48 9.214 51.14 6 47.035 6s-7.445 3.214-7.445 7.165a6.97 6.97 0 0 0 1.713 4.567c-.954.47-1.77 1.149-2.39 1.972-.62-.824-1.437-1.502-2.391-1.972a6.97 6.97 0 0 0 1.713-4.567c0-3.951-3.34-7.165-7.445-7.165s-7.445 3.214-7.445 7.165c0 1.734.644 3.326 1.713 4.567-.954.47-1.771 1.148-2.391 1.972a6.69 6.69 0 0 0-2.391-1.973 6.97 6.97 0 0 0 1.713-4.566c0-3.951-3.34-7.165-7.445-7.165S7.1 9.214 7.1 13.165c0 1.734.644 3.326 1.713 4.567-2.207 1.086-3.681 3.289-3.681 5.823v5.643c0 1.658 1.402 3.007 3.125 3.007zM47.035 8.484c2.682 0 4.864 2.099 4.864 4.68s-2.182 4.68-4.864 4.68-4.864-2.099-4.864-4.68 2.182-4.68 4.864-4.68zm-.001 11.845c-1.205 0-2.344-.279-3.353-.771-2.005.336-3.479 2-3.478 3.996v5.644c0 .288.244.523.543.523h12.577c.3 0 .544-.235.544-.523v-5.644c0-1.996-1.473-3.66-3.479-3.996a7.63 7.63 0 0 1-3.353.771zM30.79 8.484c2.682 0 4.864 2.099 4.864 4.68s-2.182 4.68-4.864 4.68-4.864-2.099-4.864-4.68 2.182-4.68 4.864-4.68zm0 11.845a7.63 7.63 0 0 1-3.353-.771c-2.005.336-3.479 2-3.479 3.996v5.644c0 .288.244.523.544.523h12.577c.3 0 .544-.235.544-.523v-5.644c0-1.996-1.474-3.66-3.479-3.996a7.63 7.63 0 0 1-3.353.771zM14.545 8.484c2.682 0 4.864 2.099 4.864 4.68s-2.182 4.68-4.864 4.68-4.864-2.1-4.864-4.68 2.182-4.68 4.864-4.68zm-3.353 11.074c-2.005.336-3.479 2-3.479 3.996v5.644c0 .288.244.523.544.523h12.576c.3 0 .544-.235.544-.523v-5.644c0-1.996-1.473-3.66-3.479-3.996a7.63 7.63 0 0 1-3.353.771c-1.206 0-2.344-.279-3.353-.771z" fill="#4f4f4f"/></svg>